<?xml version="1.0" standalone="yes"?>
<svg xmlns="http://www.w3.org/2000/svg" width="200" height="112">
<path style="fill:#47714d; stroke:none;" d="M0 0L0 112L200 112L200 0L0 0z"/>
<path style="fill:#010101; stroke:none;" d="M25 35L24 51L23 51L23 39L19 39L19 45L18 45L18 36L14 36C14 42.2009 12.5758 53.6291 21 54L22 57L26 52L27 52L30 62L40 68L48 66C48.9899 70.6336 52.2694 72.8402 55 68L56 68L57 73L59 73L60 61L61 61L61 73L64 71L65 71L65 75L69 72L70 72C72.3414 79.0482 78.5851 74.0028 77 68L73 71C76.1945 64.6883 82.8685 53.2701 72 50L70 61L69 61L67 48C62.7609 49.0735 58.7968 48.5243 57 53L56 53C53.9183 43.4633 48.2756 52.7 48 58L47 58C46.9992 51.046 41.3614 40.9213 40 53L39 53C39.4599 47.173 42.4964 39.5334 38 35L36 49L35 49C31.8471 43.3271 28.551 47.1112 28 52L27 52L27 35L25 35M171 47C166.357 44.6464 165.058 46.7851 161 49L161 42C163.335 41.2189 166.411 36.6225 161.88 36.6358C156.644 36.6512 158 46.7904 158 50L157 50C154.652 46.4936 151.926 47.7116 150 51L144 48L143 53L142 53C141.719 49.4395 139.67 30.4901 133 38L132 38L129 36L131 75L134 75L134 66C140.28 65.007 140.949 60.6754 141 55L142 55C142 60.3912 144.931 81.6075 151 67L155 69L155 54L159 67C164.385 65.4865 162.003 58.5575 162 54L163 54C163.053 59.8156 167.54 68.4056 171 59L175 60L176 57L179 55C188.762 55.1471 188.87 38.3866 178 44L179 39L175 39L174 35C169.572 37.5721 170.988 42.4085 171 47M105 79L105 69L106 69L107 76L110 76L111 68L112 68C112.003 72.2553 111.19 77.593 116 79C115.975 69.994 114.985 61.0519 115 52C115.006 48.0621 116.561 42.9257 115.643 39.1489C114.888 36.0438 112.423 36.4485 110 37L109 65C107.651 60.7355 107.213 56.4564 106.965 52C106.848 49.9054 106.466 34.6942 102.545 37.1759C99.8526 38.8798 101.049 45.3368 100.965 48C100.712 55.9211 97.6799 74.2428 105 79z"/>
<path style="fill:#47714d; stroke:none;" d="M135 41C133.306 47.8773 132.176 54.3073 135 61L136 61C138.575 54.8986 139.422 46.4022 135 41z"/>
<path style="fill:#010101; stroke:none;" d="M84 43L84 78C89.2461 74.5989 87 63.6764 87 58L88 58L88 67C88.001 69.5818 88.3959 83.8822 94.3125 78.3773C100.518 72.6034 97.3515 55.7087 93 50L92 50L90 54L87 43L84 43z"/>
<path style="fill:#47714d; stroke:none;" d="M182 45L182 51L183 51L182 45M171.333 48.6667L171.667 49.3333L171.333 48.6667M31.3333 50.6667L31.6667 51.3333L31.3333 50.6667M167 50L167 59L168 59L167 50z"/>
<path style="fill:#010101; stroke:none;" d="M117 51C117 57.1458 113.948 77.1513 123 77L121 85L120 82L118 82C116.784 87.0302 122.213 93.5727 125.258 86.8519C129.218 78.1089 126 61.5691 126 52C119.432 54.1797 122 66.2505 122 72C120.226 65.998 123.99 53.3201 117 51z"/>
<path style="fill:#47714d; stroke:none;" d="M43 52L43 56L44 56L43 52M150 53L151 54L150 53M35 54L36 55L35 54M52 54L51 66L52 66L52 54M146 54L146 67L147 67L146 54M31 57L31 58L35 57L31 57M42 57L42 63C44.56 61.0047 43.9116 59.3909 42 57M65 57L65 66L66 66L65 57M92 58L92 74L93 74C93.6804 68.6165 95.25 62.7572 92 58M73 59L73 62L74 62L73 59z"/>
</svg>
